/* XPM */
static char *freeimage[] = {
/* width height num_colors chars_per_pixel */
"48 48 361 2",
/* colors */
"   c #fefefe",
" . c #f0f8f9",
" X c #d1e9ec",
" o c #c4e0e5",
" O c #d6eaee",
" + c #f6fbfb",
" @ c #fafcfd",
" # c #d6ebee",
" $ c #c3e2e7",
" % c #cee7eb",
" & c #ecf5f6",
" * c #bddde3",
" = c #5cb0c0",
" - c #2c99af",
" ; c #2798ae",
" : c #2798b0",
" > c #2e9baf",
" , c #6bb7c4",
" < c #d2e8ed",
" 1 c #fcefdc",
" 2 c #f8d090",
" 3 c #f3bc64",
" 4 c #f3b042",
" 5 c #f1b148",
" 6 c #f4bd64",
" 7 c #f7d296",
" 8 c #fcf2e3",
" 9 c #dfeef1",
" 0 c #7abdca",
" q c #329dae",
" w c #2697ad",
" e c #2799b0",
" r c #2798af",
" t c #2897ac",
" y c #54adbb",
" u c #afd6de",
" i c #fcfdfd",
" p c #f4f9fa",
" a c #69b5c6",
" s c #2797af",
" d c #2899b0",
" f c #2699ad",
" g c #359cb0",
" h c #c8e3e9",
" j c #fcf3e5",
" k c #f5bf66",
" l c #f2a120",
" z c #f2a11e",
" x c #f2a223",
" c c #f6c372",
" v c #fdf7ed",
" b c #bfdfe4",
" n c #2e9aaf",
" m c #2699ac",
" M c #2799af",
" N c #5aaebc",
" B c #e9f4f6",
" V c #f7fbfb",
" C c #57acbd",
" Z c #309baf",
" A c #d3e9ec",
" S c #fae8ca",
" D c #f3a830",
" F c #f2a01e",
" G c #f3ac3a",
" H c #fbecd5",
" J c #c1e1e8",
" K c #2c9ab0",
" L c #44a5b7",
" P c #ebf4f6",
" I c #7abfc8",
" U c #afd8df",
" Y c #fcecd4",
" T c #f2a528",
" R c #f2a932",
" E c #fcf1e0",
" W c #9acdd8",
" Q c #61b2bf",
" ! c #fdfefe",
" ~ c #d8ecee",
" ^ c #299aad",
" / c #5dafbd",
" ( c #fdfcf8",
" ) c #f3ae40",
" _ c #f2a01d",
" ` c #f3b550",
" ' c #fafcfc",
" ] c #4ca8b9",
" [ c #2797ad",
" { c #bfdee5",
" } c #82c2cc",
" | c #c4e1e6",
".  c #f7d6a0",
".. c #f9dfb4",
".X c #aed7dd",
".o c #66b5c4",
".O c #4aa6b6",
".+ c #3aa0b1",
".@ c #fbfdfd",
".# c #f3b147",
".$ c #f4ba5c",
".% c #f1f8f9",
".& c #319baf",
".* c #fafdfd",
".= c #2e9caf",
".- c #67b4c2",
".; c #fcf3e4",
".: c #f2a325",
".> c #fefaf4",
"., c #52acbf",
".< c #e8f3f6",
".1 c #f9fcfc",
".2 c #87c6d0",
".3 c #f9e5c3",
".4 c #fbedd5",
".5 c #72bac9",
".6 c #e2f0f2",
".7 c #3ea2b4",
".8 c #8fc7d4",
".9 c #f9deb3",
".0 c #f8e9ce",
".q c #72bac7",
".w c #2999af",
".e c #f5fafb",
".r c #71bac7",
".t c #86c4cf",
".y c #fae6c5",
".u c #fbefd9",
".i c #70bac8",
".p c #54abbc",
".a c #62b3c1",
".s c #fcf6eb",
".d c #f2a221",
".f c #fefbf6",
".g c #4fa9bc",
".h c #9fcfd7",
".j c #fcfdfe",
".k c #53abbe",
".l c #349db2",
".z c #f3b44d",
".x c #f5bd61",
".c c #ecf5f7",
".v c #2c98af",
".b c #43a2b5",
".n c #f4fafb",
".m c #deeff2",
".M c #369eb2",
".N c #b6dbe1",
".B c #f9dcae",
".V c #f9e4bf",
".C c #a0d2d7",
".Z c #2d9aad",
".A c #cde5ea",
".S c #d4eaee",
".D c #3ba0b4",
".F c #4ea9bb",
".G c #fcfcfb",
".H c #f4b34b",
".J c #f4bc61",
".K c #f6fafb",
".L c #41a3b5",
".P c #2799ae",
".I c #349db3",
".U c #c0e0e5",
".Y c #e6f3f4",
".T c #41a3b6",
".R c #9ccfda",
".E c #fcf2e2",
".W c #f2a832",
".Q c #f4ae3e",
".! c #fdf6eb",
".~ c #8ac5d1",
".^ c #309dae",
"./ c #cee7ea",
".( c #fcfefe",
".) c #a6d5da",
"._ c #3ba0b3",
".` c #2b99af",
".' c #c0e1e7",
".] c #fbeed7",
".[ c #f3ad3d",
".{ c #f3b249",
".} c #fcf4e6",
".| c #b3d9df",
"X  c #2799ad",
"X. c #2e9aae",
"XX c #87c4ce",
"Xo c #f1f9fb",
"XO c #60b1c1",
"X+ c #2d9bb0",
"X@ c #b2d9e0",
"X# c #fdf9f1",
"X$ c #f6ca81",
"X% c #f2a428",
"X& c #f2a52a",
"X* c #f7d092",
"X= c #fcfaf4",
"X- c #a2d1d8",
"X; c #2b99ae",
"X: c #43a4b6",
"X> c #d1e8ec",
"X, c #e5f2f3",
"X< c #45a5b7",
"X1 c #2698ad",
"X2 c #359db3",
"X3 c #9fced7",
"X4 c #fdfefd",
"X5 c #fbefdb",
"X6 c #f5c069",
"X7 c #f5c16e",
"X8 c #a3d1d8",
"X9 c #3aa0b3",
"X0 c #2699ae",
"Xq c #2698ac",
"Xw c #2f9bb0",
"Xe c #c0e1e6",
"Xr c #48a6b3",
"Xt c #6ab7c3",
"Xy c #edf6f8",
"Xu c #faead0",
"Xi c #f4b95a",
"Xp c #f2a11f",
"Xa c #f4b754",
"Xs c #fbe6c4",
"Xd c #f1f7f8",
"Xf c #72bbca",
"Xg c #2698ab",
"Xh c #2e9bb0",
"Xj c #cee8ec",
"Xk c #6bb7c3",
"Xl c #2998af",
"Xz c #96ccd4",
"Xx c #fdfbf8",
"Xc c #f6c980",
"Xv c #f6c473",
"Xb c #fdfaf4",
"Xn c #a0d2d8",
"Xm c #41a2b5",
"XM c #b5dbe1",
"XN c #2698ae",
"XB c #2898ae",
"XV c #a2d1d9",
"XC c #fdf7ee",
"XZ c #f3b551",
"XA c #b1dae0",
"XS c #2898ad",
"XD c #7bbfc9",
"XF c #46a4b7",
"XG c #90c9d1",
"XH c #fdf8ee",
"XJ c #f4b147",
"XK c #f3ac3b",
"XL c #fcf5e7",
"XP c #9ed0d7",
"XI c #2697ac",
"XU c #2a99ae",
"XY c #dbedef",
"XT c #b2dae0",
"XR c #fcfbf8",
"XE c #f3b655",
"XW c #f3b34c",
"XQ c #fefbf7",
"X! c #70bbca",
"X~ c #76bcc6",
"X^ c #5fb2c0",
"X/ c #329db0",
"X( c #e4f3f5",
"X) c #f6cc89",
"X_ c #f6c679",
"X` c #eef7f9",
"X' c #399fb4",
"X] c #309bad",
"X[ c #f2f8fa",
"X{ c #ecf6f8",
"X} c #2a98af",
"X| c #9accd5",
"o  c #f2a222",
"o. c #fbe8ca",
"oX c #a6d4db",
"oo c #b4dae1",
"oO c #b7dce3",
"o+ c #f5fafa",
"o@ c #f3ba5c",
"o# c #f3b44e",
"o$ c #44a4b7",
"o% c #7fc0cc",
"o& c #90cad3",
"o* c #90c8d2",
"o= c #fae5c3",
"o- c #9bcfd9",
"o; c #57aebd",
"o: c #73bcc9",
"o> c #2997ae",
"o, c #e1f0f3",
"o< c #f5c67a",
"o1 c #f5be68",
"o2 c #ebf5f7",
"o3 c #2a99ac",
"o4 c #36a1b3",
"o5 c #63b4c2",
"o6 c #51abbc",
"o7 c #f3a72e",
"o8 c #f2a427",
"o9 c #fdf8ef",
"o0 c #5cafc1",
"oq c #2797ae",
"ow c #62b3c2",
"oe c #8ac5d2",
"or c #fae7c9",
"ot c #f9e2bd",
"oy c #96ccd6",
"ou c #64b6c5",
"oi c #b6dbe2",
"op c #f6d193",
"oa c #f5cb84",
"os c #c5e2e7",
"od c #79bfca",
"of c #dbecef",
"og c #f4bb5f",
"oh c #ebf4f5",
"oj c #39a2b5",
"ok c #97ccd4",
"ol c #2697ab",
"oz c #f2af43",
"ox c #2899ac",
"oc c #5cb0bd",
"ov c #c2e1e6",
"ob c #2798ad",
"on c #f2ac3b",
"om c #f3aa35",
"oM c #3ea2b5",
"oN c #8dc7d2",
"oB c #2f9bad",
"oV c #f3ab37",
"oC c #fefdfc",
"oZ c #c5e1e5",
"oA c #83c1cb",
"oS c #53acbd",
"oD c #53abbc",
"oF c #54acbd",
"oG c #f2ab39",
"oH c #f2a72f",
"oJ c #fefefc",
"oK c #6bb5c1",
"oL c #53acbe",
"oP c #53acbc",
"oI c #5aafbc",
"oU c #f3b34a",
"oY c #f1ac3d",
"oT c #f5be64",
"oR c #f4b756",
"oE c #f6cf8e",
"oW c #f7ca80",
"oQ c #f9e3bf",
"o! c #f9deb2",
"o~ c #fefaf3",
"o^ c #f2a529",
"o/ c #f7deb6",
"o( c #f6d49f",
"o) c #f6d5a0",
"o_ c #f7dcae",
/* pixels */
"                       . X o O +                                 @ # $ % &                      ",
"                   * = - ; : : > , <     1 2 3 4 5 6 7 8     9 0 q w e r t y u i                ",
"               p a s : : d d : f g h j k l z z z z z z x c v b n m e e e M e e N B              ",
"             V C : : d d d d : Z A S D F F F F F F F F F F G H J K d d d d d d r L P            ",
"             I r : d d d d : s U Y T z z z F z z z F z z z F R E W ; : d d d d e ; Q !          ",
"           ~ ^ f e d d d r ; / ( ) _ F _ _ _ F _ _ _ F _ _ _ F ` ' ] d d d d d d d [ {          ",
"           } e M d d e d : r |.  z z z z z z z z z z z z z z z z...X r d d d e d d :.o          ",
"          .O d d d d d d :.+.@.# F F F F F F F F F F F F F F F F.$.% - d d d d d d d.& @        ",
"        .*.= e d d d d d e.-.; z z F z z z F z z z F z z z F z z.:.>., d d d d d d d s.<        ",
"        .1 K d d d d d d e.2.3 _ _ _ F _ _ _ F _ _ _ F _ _ _ F _ _.4.5 d d d d d d e r.6        ",
"          .7 e d d d e d :.8.9 z z z z z z z z z z z z z z z z z z.0.q d d d e d d M.w.e        ",
"          .r d d d d d d :.t.y F F F F F F F F F F F F F F F F F z.u.i d d d d d d e.p          ",
"           * r d d d d d :.a.s.d z F z z z F z z z F z z z F z z T.f.g d d d d d d s.h          ",
"          .j.k : d d d d r.l V.z _ _ F _ _ _ F _ _ _ F _ _ _ F _.x.c.v d d d d d d.b.n          ",
"            .m.M r d e d M r.N.B z z z z z z z z z z z z z z z z.V.C M d d d e d.Z.A            ",
"              .S.D r d d e r.F.G.H F F F F F F F F F F F F F F.J.K.L.P d : r :.I.U              ",
"                .Y.T : d d : :.R.E.W z z z F z z z F z z z F.Q.!.~ : M d e e.^./                ",
"            .(.)._ r : d d d e.`.'.].[ _ _ _ F _ _ _ F _ _.{.}.|X  M d d : r eX.XXXo            ",
"          .cXO r r d e d d d e ;X+X@X#X$X% z z z z z zX&X*X=X-X; f d e d d d e f fX:X>          ",
"        X,X< d e e d d d d e :X1X2X3X4X5X6 F F F F F FX7 H.jX8X9 M d d d d d dX0Xq MXwXe        ",
"      .%Xr e e d d d d d : M rXtXyXuXiXp z F z z z F z z zXaXsXdXfXg e d d d d d d d dXhXj      ",
"      Xk e M e d d d d d eXlXzXxXc.d F _ _ _ F _ _ _ F _ _ _XpXvXbXn.w d d d d d d d d :Xm .    ",
"    XM r e e e d d d :XNXBXVXCXZ z z z z z z z z z z z z z z z z.{.;XAXS.P d e d d d e e rXD    ",
"  .@XF r d d d d d d :X1XGXHXJ F F F F F F F F F F F F F F F F F FXKXLXPXI d d d d d d M eXUXY  ",
"  XT r : d d d d d d :.aXRXE z z z F z z z F z z z F z z z F z z z FXWXQX! d d d d d d e e MX~  ",
"  X^ : d d d d d d dX/X(X) _ F _ _ _ F _ _ _ F _ _ _ F _ _ _ F _ _ _ FX_X`X' e d d d d d d eX]X[",
"X{X} e d d d e d e :X|.4o  z z z z z z z z z z z z z z z z z z z z z zXpo.oX ; d d d e d d e ;oo",
"oO r d d d d d d fX9o+o@ F F F F F F F F F F F F F F F F F F F F F F F Fo# @o$ : d d d d d dXNo%",
"o& : d d d d d d ro*XuXp z F z z z F z z z F z z z F z z z F z z z F z z zo=o- M M e d d d d Mo;",
"o: d d d d d d do>o,o< _ _ _ F _ _ _ F _ _ _ F _ _ _ F _ _ _ F _ _ _ F _ _o1o2o3 m ; d d d e eo4",
"o5 e e d d d e do6XQo7 z z z z z z z z z z z z z z z z z z z z z z z z z zo8o9o0 f M e d d e foq",
"ow M d d d d d doeor F F F F F F F F F F F F F F F F F F F F F F F F F F F FotoyXN e d d d d d d",
"ou M d d d d d doiop z z z F z z z F z z z F z z z F z z z F z z z F z z z Foaos m d d d d d : :",
"od M d d d d M ;ofX7 F _ _ _ F _ _ _ F _ _ _ F _ _ _ F _ _ _ F _ _ _ F _ _ _ogoh ; e d d d d eoj",
"ok r e d d d.Pol.eXZ z z z z z z z z z z z z z z z z z z z z z z z z z z z zoz  ox.P e d d d eoc",
"ov ; d d d d Mob  on F F F F F F F F F F F F F F F F F F F F F F F F F F F Fom  oM M d d d d roN",
".noB d d d d e r  oV z z z F z z z F z z z F z z z F z z z F z z z F z z z Fo7oCo$ d d d d r ;oZ",
"  oAoSoSoSoSoDoF  oG F _ _ _ F _ _ _ F _ _ _ F _ _ _ F _ _ _ F _ _ _ F _ _ _oHoJoKoLoSoSoSoPoI.1",
"                  oU z z z z z z z z z z z z z z z z z z z z z z z z z z z zoY                  ",
"                  oT F F F F F F F F F F F F F F F F F F F F F F F F F F F FoR                  ",
"                  oE z z z F z z z F z z z F z z z F z z z F z z z F z z z FoW                  ",
"                  oQ F _ _ _ F _ _ _ F _ _ _ F _ _ _ F _ _ _ F _ _ _ F _ _ _o!                  ",
"                  o~o^ z z z z z z z z z z z z z z z z z z z z z z z z z z x.s                  ",
"                    o/o(o(o)o)o(o(o(o(o(o(o(o(o(o(o(o(o(o(o(o(o(o(o(o(o(o)o_                    ",
"                                                                                                ",
"                                                                                                ",
"                                                                                                ",
"                                                                                                "
};
